<?xml version="1.0" encoding="UTF-8"?>
<svg id="_图层_2" data-name="图层_2" xmlns="http://www.w3.org/2000/svg" viewBox="0 0 291.07 128.2">
  <defs>
    <style>
      .cls-1 {
        fill: #fff;
      }
    </style>
  </defs>
  <g id="_图层_1-2" data-name="图层_1">
    <g>
      <path class="cls-1" d="M0,69.33c.9-1.03,1.67-2.23,2.73-3.06,7.37-5.75,13.65-12.62,20.02-19.4,1.38-1.47,2.76-2.96,3.98-4.56,1.74-2.28,3.38-4.64,4.96-7.04,1.53-2.33.9-4.23-1.68-5.26-4.7-1.88-9.58-3.06-14.62-3.59-2.12-.22-4.26-.6-6.3-1.2-.81-.24-1.38-1.27-2.05-1.95.88-.35,1.78-1.05,2.63-1,7.19.42,14.36,1.1,21.28,3.19,2.06.62,3.91,1.94,5.81,3.01.98.55,1.23,1.49,1.12,2.6-.31,3.27-1.56,6.15-3.78,8.51-4.18,4.43-8.47,8.76-12.75,13.09-.6.61-1.48.95-2.06,1.57-1.47,1.56-2.86,3.18-4.25,4.81-1.78,2.09-3.46,4.28-5.99,5.58-.32.16-.52.56-1.07,1.17,1.1.24,1.87.56,2.62.54,3.43-.11,6.86-.34,10.3-.47,1.23-.05,2.48-.05,3.69.13,2.61.4,3.46,1.72,3.02,4.37-.51,3.01-1.94,5.61-3.65,8.07-1.81,2.59-3.71,5.11-5.56,7.67-.21.3-.56.65-.52.93.07.53.27,1.14.63,1.49.25.25.91.29,1.3.15,1.83-.63,3.6-1.5,5.46-2,2.05-.56,3.46-1.58,4.7-3.4,1.9-2.78,4.21-5.3,6.48-7.81,3.94-4.35,7.98-8.6,11.97-12.9.98-1.06.63-2.34.38-3.51-1.24-5.96-2.57-11.9-3.8-17.86-.31-1.51-.44-3.08-.45-4.63,0-1.18.68-1.59,1.74-1.09,1.03.48,2.06,1.06,2.89,1.82,2.18,2.02,4.37,4.06,6.31,6.3,1.45,1.67,2.96,3.2,4.73,4.5,1.38,1.01,1.96,1.11,3-.22,1.83-2.33,3.62-4.71,5.14-7.24.89-1.48.42-2.31-1.22-2.99-1.6-.66-3.24-1.29-4.93-1.61-.92-.18-1.96.31-2.96.5-.28-1.28.21-2.66,1.74-3.21,1.46-.54,3.13-.94,4.64-.76,1.76.21,3.57.88,5.12,1.77,3.4,1.94,4.16,4.89,2.48,8.46-1.45,3.06-4,5.21-6.28,7.59-.47.49-.99.95-1.72,1.64.72.66,1.33,1.28,2.01,1.83.35.28.81.42,1.19.67,2.59,1.69,5.01,1.29,7.76.05,2.93-1.32,6.16-1.98,9.29-2.85,4.4-1.23,8.84-2.34,13.23-3.6,1.5-.43,2.91-1.2,4.36-1.81,1.14-.47,1.61-1.35,1.44-2.52-.38-2.63-.81-5.25-1.22-7.87-.31-1.95-.65-3.88-.91-5.84-.31-2.36.59-3.18,2.91-2.66,3.04.69,5.51,2.48,7.8,4.45,2.86,2.45,6.18,4.05,9.6,5.49,1.9.8,3.1,3.93,1.94,5.65-.3.44-1.27.62-1.91.59-2.03-.1-3.34,1.44-2.89,3.44.12.53-.03,1.2-.27,1.71-1.07,2.37-1.96,4.87-3.37,7.02-2.84,4.31-3.29,9.03-3.03,13.95.07,1.37.22,2.74.46,4.09.34,1.86,1.53,2.6,3.38,2.25.22-.04.45-.1.68-.12,1.18-.1,2.37-.18,3.61-.09-.4.16-.79.32-1.19.47-.9.34-1.83.6-2.7,1.01-2.42,1.13-3.5,2.88-3.08,5.52.8,5.06,1.77,10.09,2.69,15.13.21,1.16.49,2.33.86,3.45.34,1.06,1.12,1.21,1.9.46,1.01-.98,1.88-2.12,2.89-3.11,6.1-6,12.91-10.9,21.42-12.75,2.57-.56,5.36-.35,8.03-.2,1.77.1,2.82,1.36,3.11,3.17.56,3.52-.07,6.78-2.26,9.61-3.7,4.78-7.89,9.05-13.04,12.28-3.1,1.94-6.44,3.08-10.14,2.94-2.11-.08-2.94-.98-2.37-2.99.55-1.97,1.45-3.85,2.22-5.75.07-.17.33-.25.84-.62.08,1.7.22,3.12.18,4.52-.03,1.06.34,1.63,1.39,1.53.75-.08,1.61-.18,2.21-.59,2.55-1.77,5.32-3.37,7.45-5.57,2.89-3,5.28-6.49,7.87-9.79.3-.39.49-.88.69-1.34.87-1.99-.03-3.63-2.17-3.61-1.49,0-3.02.25-4.45.67-5.82,1.7-10.34,5.44-14.8,9.38-2.83,2.5-4.65,5.71-7.12,8.44-1.07,1.17-2.24,2.33-3.56,3.17-1.84,1.17-3.56.54-4.29-1.53-.48-1.36-.59-2.85-.81-4.29-.66-4.43-1.26-8.87-1.96-13.29-.31-1.99-1.48-3.29-3.36-4.18-2.85-1.35-5.64-2.85-8.35-4.45-1.32-.78-2.47-1.89-3.59-2.95-.92-.87-1.18-1.91-.33-3.06,3.1-4.19,6.11-8.45,9.31-12.56,1.57-2.02,2.56-4.13,2.2-6.68-.28-1.94-.77-3.85-1.17-5.78-.17-.8-.67-1.24-1.47-1.08-1.68.35-3.34.76-4.99,1.2-2.82.76-5.65,1.52-8.45,2.36-2.26.67-4.5,1.42-6.73,2.21-.73.26-.75.8-.65,1.63.16,1.35-.11,2.77-.34,4.13-.05.29-.68.65-1.08.69-4.38.44-8.07,2.62-11.77,4.7-2.63,1.47-5.11,3.21-7.66,4.83-.66.42-1.26.99-1.98,1.23-3.48,1.14-4.28,4.28-5.3,7.17-.24.67.33,1.81.85,2.5.54.72,1.29.54,1.95-.22.75-.85,1.6-1.64,2.52-2.3,2.18-1.57,4.25-1.43,6.25.36.61.55,1.21,1.14,1.69,1.8,2.09,2.85,4.03,5.78,5.13,9.19.16.49.63.88.92,1.34.47.72,1.03,1.42,1.33,2.21.89,2.3,1.75,2.96,4.29,3.04.82.02,1.67-.05,2.46.12.48.1,1.06.48,1.26.89.12.26-.28.91-.61,1.23-2.62,2.59-8.23,2.1-10.17-.99-2.14-3.41-4.06-6.96-6.15-10.41-.8-1.32-1.71-2.6-2.74-3.76-.97-1.09-1.51-.93-2.14.33-.23.45-.41.94-.73,1.32-1.67,1.97-2.23,4.46-3.02,6.8-.46,1.35-.29,2.94-.32,4.42-.08,4.11-.18,8.23-.13,12.34.02,2,.49,3.99.49,5.99,0,2.04-.87,2.97-2.4,3.11-1.24.12-2.11-.31-2.28-1.6-.38-2.76-.81-5.53-1.01-8.31-.53-7.64-.91-15.28-1.44-22.92-.13-1.86-.55-3.71-.92-5.55-.17-.85-.63-1.43-1.67-.88-2.14,1.14-4.3,2.21-6.44,3.36-.64.34-1.23.8-1.77,1.28-.22.19-.42.69-.32.9,1.79,3.81,1.53,7.66-.03,11.39-1.09,2.6-2.5,5.08-3.9,7.55-2.53,4.46-5.14,8.87-7.77,13.27-.82,1.37-1.66,2.78-2.73,3.95-1.55,1.71-3.3,3.23-4.97,4.83h-1.93c-1.63-1.01-2.45-2.53-2.77-4.37-1.01-5.79-.22-11.4,1.75-16.87.16-.45.56-.82.84-1.22.14.04.28.07.41.11.07,1.02.22,2.04.21,3.07-.02,3.06-.17,6.11-.12,9.17.01.85.41,1.78.87,2.53.77,1.26,1.29,1.21,2.26.06,4.01-4.77,7.07-10.11,9.69-15.73,1.7-3.65,3.4-7.3,4.08-11.32.28-1.66-.45-2.78-2.12-3.08-.76-.13-1.56-.21-2.32-.1-1.58.21-3.19.4-4.71.88-4.03,1.26-8.13,2.31-11.8,4.57-1.7,1.04-3.62,1.76-5.51,2.44-1.05.37-2.24.5-3.36.46-1.35-.05-1.81-1.07-1.1-2.22.65-1.05,1.44-2.01,2.16-3.01,3.64-5.05,7.32-10.06,10.88-15.16,1.33-1.91,2.42-3.99,3.51-6.05.78-1.48.33-2.26-1.34-2.41-1.09-.1-2.2-.01-3.29.08-4.7.43-9.39.94-14.09,1.3C2.1,71.4,1.04,70.92,0,70.7c0-.46,0-.92,0-1.38ZM54.5,67.85c0,.82,0,1.65,0,2.47,0,.14.02.28.04.41.21,1.37,1.1,1.73,2.25.93,1.56-1.09,3.07-2.27,4.7-3.23,2.84-1.68,5.77-3.22,8.66-4.83.39-.22.8-.49,1.08-.83.65-.79.55-1.48-.39-2.02-2.67-1.54-5.34-3.08-7.27-5.57-.58-.74-1.15-.78-1.81-.14-1.09,1.05-2.15,2.13-3.3,3.11-3.01,2.56-4.51,5.71-3.95,9.7ZM50.83,73c-.31-1.47-.55-2.96-.96-4.4-.52-1.84-1-2.01-2.37-.66-4.37,4.3-8.68,8.66-13,13-.1.1-.23.2-.25.32-.08.5-.13,1-.2,1.5.55.02,1.12.16,1.64.03.6-.14,1.12-.7,1.71-.75,4.69-.45,8.4-2.89,11.9-5.76,1.01-.83,1.58-1.89,1.52-3.29ZM109.7,76.39c-.18-1.56-.26-3.49-.67-5.34-.42-1.9-1.51-2.23-2.95-.97-2.42,2.11-4.26,4.66-5.16,7.76-.19.66.03,1.7.46,2.23,1.36,1.7,3.28,2.6,5.41,2.94,1.38.22,2.27-.46,2.47-1.89.21-1.44.27-2.9.43-4.73ZM50.03,44.72c.85,3.81,1.63,7.56,2.53,11.28.35,1.46,1.05,1.64,2.12.64,1.4-1.31,2.71-2.71,4.03-4.1.72-.76.87-1.53.02-2.36-2.22-2.17-4.39-4.39-6.63-6.54-.38-.37-1.03-.46-1.55-.68-.17.58-.34,1.16-.52,1.76ZM116.42,40.14c-2.11-1.9-4.02-3.68-6.01-5.37-1.3-1.11-2.32-.74-2.29.98.04,1.74.32,3.58,1,5.16.93,2.17,2.97,2.52,4.91,1.16.78-.55,1.48-1.19,2.38-1.93ZM118.8,46.67c-2.58-.71-6.18.84-7.17,2.95-.3.64-.48,1.4-.46,2.1.02.51.34,1.24.74,1.44.37.18,1.18-.05,1.53-.39,1.51-1.46,2.93-3,4.35-4.54.38-.42.62-.96,1-1.56Z"/>
      <path class="cls-1" d="M220.92,0c2.32.81,4.74,1.41,6.93,2.47,6.08,2.95,7.82,6.41,6.96,13.09-.72,5.62-2.88,10.73-5.25,15.82-2.52,5.42-4.73,10.99-7.05,16.5-.83,1.98-1.45,4.06-2.41,5.97-1.16,2.3-1.7,4.72-1.98,7.23-.37,3.32-.77,6.63-1.06,9.95-.19,2.1.33,2.58,2.26,3.36,1.36.55,2.61,1.37,3.84,2.18.9.59,1.12,1.52.78,2.56-.1.3-.18.62-.34.9-2.45,4.17-5.15,8.15-9.32,10.79-1.3.82-2.9,1.27-4.43,1.59-1.62.35-3.02.99-3.84,2.37-.37.63-.36,1.71-.11,2.43.59,1.67,1.42,3.25,2.18,4.85.11.23.33.48.56.58,2.72,1.28,5.17,3.18,8.24,3.61.34.05.77-.12,1.07-.32,9.37-6,17.31-13.65,24.83-21.74,4.1-4.42,7.81-9.2,11.7-13.82.18-.21.32-.5.54-.61,2.35-1.15,3.36-3.54,4.94-5.39.46-.54.82-1.58.62-2.19-1.33-4.15-1.13-8.41-1.18-12.67-.02-1.63-.22-3.27-.47-4.89-.25-1.62.16-2.42,1.75-2.86,2.42-.67,4.46.29,5.38,2.63,1.87,4.75,2.66,9.77,2.62,14.8-.06,8.1-.61,16.2-.95,24.3-.12,2.83-.13,5.67-.35,8.5-.26,3.36-.68,6.71-1.07,10.06-.08.67-.27,1.35-.54,1.97-.6,1.41-1.78,2.15-2.86,1.87-1.05-.27-2.16-1.9-2.04-3.11.18-1.78.45-3.54.67-5.32.46-3.77,1.04-7.52,1.32-11.3.34-4.66.44-9.34.62-14.01.02-.65-.14-1.31-.26-2.39-1.57,1.28-2.98,2.18-4.06,3.36-3.16,3.44-6.38,6.85-9.24,10.54-5.46,7.06-12.1,12.86-18.94,18.47-2.9,2.37-5.96,4.56-9,6.75-6.05,4.37-15.56.52-18.47-5.12-3.64-7.05-5.72-14.53-7.39-22.2-.94-4.34-1.92-8.67-3.04-12.96-1.05-4.04-3.27-7.5-5.68-10.88-1.46-2.05-3.09-3.66-5.5-4.47-.51-.17-.97-.51-1.44-.8-2.06-1.29-3.19-3.07-3.03-5.6.14-2.17-.37-4.17-1.89-5.84-.82-.9-1.62-1.08-2.61-.28-1.6,1.3-3.19,2.6-4.85,3.82-.74.54-1.48,1.64-2.61.74-1.07-.85-1.38-2.79-.67-3.91.31-.5.72-.96,1.16-1.35,2.42-2.13,5.14-3.65,8.37-4.16,3.54-.56,5.59,1,5.83,4.55.08,1.23,0,2.47,0,3.71,0,1.05-.04,2.11.03,3.16.14,2.1.18,2.05,2.23,2.49,4.26.9,8.53,1.65,12.92,1.55,4.41-.1,7.26,2.39,8.76,6.28,2.22,5.73,2.36,11.72,1.53,17.74-.23,1.67-.76,3.31-.89,4.99-.16,2.09,1.12,3.7,2.26,5.31.07.1.76-.06.97-.28,1.96-2.05,3.9-4.13,5.8-6.24.27-.3.49-.96.34-1.29-2.18-4.95-1.44-9.94.09-14.79,2.98-9.42,6.14-18.78,9.37-28.12,1.9-5.49,4.21-10.84,6.05-16.34,1.23-3.68.4-7.32-1.38-10.73-.16-.31-.45-.62-.76-.78-3.22-1.67-6.46-3.36-10.27-2.54-1.49.32-2.93.92-4.41,1.32-1.7.46-3.42.87-5.14,1.26-.23.05-.5-.1-.98-.21,1.24-1.94,2.59-3.63,4.49-4.6,1.93-.98,4.07-1.55,6.12-2.3,1.19,0,2.38,0,3.58,0ZM202.04,70.11c-.24-2.21-.36-4.42-.75-6.57-.61-3.41-1.74-6.58-5.07-8.36-.63-.34-1.36-1.1-2.07-.27-.7.81-1.16,1.78-.59,2.9.12.24.31.46.43.7.9,1.84,1.98,3.62,2.63,5.55,1.04,3.07,1.77,6.24,2.68,9.35.15.51.6.93.91,1.38.49-.43,1.25-.79,1.4-1.32.32-1.07.31-2.25.44-3.37Z"/>
      <path class="cls-1" d="M142.78,0c2.92,1.25,5.83,2.53,8.76,3.75.68.28,1.01.55.71,1.3-.32.81-.57,1.64-.92,2.44-.55,1.27-1.51,1.88-2.91,2.18-4.28.94-8.53,2.01-12.76,3.12-2.34.61-4.64,1.39-6.96,2.1-1.75.54-2.23,1.55-1.38,3.12,3.21,5.91,4.87,12.32,6.07,18.86.57,3.14.77,6.34,1.2,9.51.1.73.47,1.42.71,2.14.67-.3,1.51-.44,1.98-.93,1.12-1.14,2.09-2.42,3.07-3.69,3.42-4.44,7.7-7.55,13.32-8.52.76-.13,1.56-.17,2.32-.11,3.11.25,4.9,1.68,4.97,4.77.07,3.08-.16,6.26-.93,9.23-1.55,6.06-3.45,12.04-5.41,17.98-1.08,3.28-1.89,3.45-5.12,2.2-1.05-.4-2.22-.47-3.32-.73-.41-.1-.8-.31-1.2-.47.18-.4.26-.89.55-1.17,1.28-1.23,2.6-2.42,3.96-3.57,1.98-1.68,3-3.95,3.67-6.33,1.13-4.05,2.12-8.14,3-12.26.62-2.91-.13-4.44-2.26-5.41-.35-.16-.88-.32-1.15-.17-2.13,1.23-4.42,2.3-6.26,3.89-1.59,1.37-2.73,3.31-3.92,5.09-1.86,2.77-3.77,5.53-5.34,8.47-1.02,1.91-1.44,4.13-2.16,6.2-.54,1.56-1.11,3.1-1.69,4.64-.21.55-.4,1.2-.8,1.57-.63.58-1.46,1.36-2.17,1.33-1.07-.04-.8-1.25-.81-2.02-.04-4.72-.09-9.44-.05-14.16.04-4.21.5-8.44.24-12.62-.36-5.78-.91-11.61-3.81-16.85-1.22-2.2-2.44-4.4-3.82-6.51-.58-.89-1.59-1.49-2.32-2.3-.4-.45-.63-1.06-.94-1.6.55-.25,1.09-.69,1.65-.72,6.66-.35,12.58-3.05,18.48-5.76,1.04-.48,1.93-1.3,2.94-2.01-.82-1.04-1.5-1.87-2.16-2.73-.8-1.05-.96-2.14-.09-3.25C140.77,0,141.78,0,142.78,0Z"/>
      <path class="cls-1" d="M291.07,98.49c-.15.38-.29.76-.46,1.12-.48,1.08-1.29,1.52-2.44,1.14-.56-.19-1.14-.39-1.62-.71-2.92-1.95-5.47-4.29-7.47-7.18-.37-.53-.43-1.26-.64-1.9.15-.13.31-.25.46-.38,1.05.65,2.11,1.29,3.14,1.97.65.43,1.23.94,1.86,1.39,1.14.81,2.14.86,3.15-.33.83-.97,1.9-.61,2.67.11.58.53.91,1.33,1.35,2.02v2.75Z"/>
      <path class="cls-1" d="M235.4,69.37c.3-.98.73-2.85,1.42-4.62,2.2-5.59,4.73-11.01,8.56-15.72.26-.32.47-.67.7-1.02.52-.77.45-1.47-.51-1.69-1.11-.26-1.07-.93-.68-1.63.53-.95,1.09-1.95,1.85-2.7,3.02-3,6.07-5.96,9.21-8.83,1.25-1.14,2.77-1.93,4.6-1.83,1.76.1,2.62,1.01,2.03,2.7-.5,1.43-1.18,3.01-2.27,3.97-2.87,2.55-5.22,5.49-7.42,8.58-1.64,2.3-3.25,4.63-4.93,6.9-.51.69-1.32,1.16-1.78,1.87-1.03,1.61-1.96,3.29-2.85,4.98-.41.78-.09,1.48.75,1.75,1.34.44,2.71.77,4.07,1.18,1.8.53,3.45,1.29,4.17,3.22.13.36.25.87.1,1.17-.69,1.41-1.26,2.96-2.28,4.11-2.07,2.36-4.54,4.29-7.79,4.78-4.07.62-7.11-2.13-6.95-7.17ZM246.53,67.38c-.29-.35-.73-1.01-1.3-1.52-.5-.45-1.14-.74-1.74-1.07-.5-.28-1.35-.84-1.47-.72-.47.49-.74,1.18-1.03,1.82-.37.81-.58,1.71-1.04,2.45-.64,1.03-.52,1.8.65,3.09.73.8,1.34.74,2.06-.01.23-.24.64-.32.99-.4,1.36-.34,2.71-1.83,2.88-3.62Z"/>
      <path class="cls-1" d="M180.33,102.46c-.64-6.96-1-13.36-1.87-19.7-.72-5.22-1.65-10.4-1.29-15.7.07-1,.21-2.01.5-2.96.14-.48.68-.84,1.04-1.26.44.41,1.14.74,1.28,1.23.44,1.58.76,3.2.98,4.83.55,4.12.99,8.26,1.53,12.38.62,4.71,1.57,9.4,1.91,14.13.5,6.88.97,13.81-.1,20.69-.12.74-.55,1.66-1.14,2.05-.67.45-1.82.76-2.49.48-.66-.27-1.26-1.32-1.38-2.11-.18-1.15.07-2.36.16-3.55.3-3.68.61-7.37.87-10.53Z"/>
    </g>
  </g>
</svg>